<?xml version="1.0" encoding="UTF-8" standalone="no"?>
<svg
   xmlns:dc="http://purl.org/dc/elements/1.1/"
   xmlns:cc="http://creativecommons.org/ns#"
   xmlns:rdf="http://www.w3.org/1999/02/22-rdf-syntax-ns#"
   xmlns:svg="http://www.w3.org/2000/svg"
   xmlns="http://www.w3.org/2000/svg"
   xmlns:sodipodi="http://sodipodi.sourceforge.net/DTD/sodipodi-0.dtd"
   xmlns:inkscape="http://www.inkscape.org/namespaces/inkscape"
   width="297mm"
   height="210mm"
   viewBox="0 0 297 210"
   version="1.1"
   id="svg8"
   inkscape:version="1.0.1 (3bc2e813f5, 2020-09-07)"
   sodipodi:docname="notes.svg">
  <defs
     id="defs2" />
  <sodipodi:namedview
     id="base"
     pagecolor="#ffffff"
     bordercolor="#666666"
     borderopacity="1.0"
     inkscape:pageopacity="0.0"
     inkscape:pageshadow="2"
     inkscape:zoom="0.7"
     inkscape:cx="352.60368"
     inkscape:cy="438.0959"
     inkscape:document-units="mm"
     inkscape:current-layer="g1052"
     inkscape:document-rotation="0"
     showgrid="false"
     inkscape:pagecheckerboard="false"
     showborder="true"
     inkscape:window-width="1864"
     inkscape:window-height="988"
     inkscape:window-x="34"
     inkscape:window-y="32"
     inkscape:window-maximized="0" />
  <metadata
     id="metadata5">
    <rdf:RDF>
      <cc:Work
         rdf:about="">
        <dc:format>image/svg+xml</dc:format>
        <dc:type
           rdf:resource="http://purl.org/dc/dcmitype/StillImage" />
        <dc:title></dc:title>
      </cc:Work>
    </rdf:RDF>
  </metadata>
  <g
     inkscape:label="Layer 1"
     inkscape:groupmode="layer"
     id="layer1">
    <g
       id="g1052"
       transform="matrix(0.26458333,0,0,0.26458333,6.0149569,40.670239)">
      <path
         d="M 388.79756,338.97265 174.04914,383.99071 A 23.943243,23.812522 0 0 1 145.71432,365.62223 L 108.86381,191.74948 a 23.943243,23.812522 0 0 1 18.46932,-28.18011 l 214.74841,-45.01806 a 23.943229,23.812508 0 0 1 28.33481,18.36848 l 36.85051,173.87275 a 23.943243,23.812522 0 0 1 -18.4693,28.18011 z M 127.91348,166.30753 a 21.126523,21.011181 0 0 0 -16.29646,24.8648 l 36.85049,173.87275 a 21.126523,21.011181 0 0 0 25.0013,16.20749 l 214.7484,-45.01808 a 21.126523,21.011181 0 0 0 16.29648,-24.8648 L 367.66317,137.49694 a 21.126523,21.011181 0 0 0 -25.00131,-16.20749 z"
         fill="#3f3d56"
         id="path833"
         style="stroke-width:1.40299" />
      <path
         id="ea648e8d-1b31-4ae2-9566-f54bfd0d94c9"
         data-name="Path 411"
         d="m 328.73867,175.88208 -108.38072,22.72003 a 3.8419266,3.8209511 0 0 1 -4.54313,-2.60674 3.7008908,3.6806854 0 0 1 2.81169,-4.55302 l 110.32492,-23.12752 c 4.30767,2.41435 2.94619,6.90509 -0.21411,7.5676 z"
         fill="#cccccc"
         style="stroke-width:1.40299" />
      <path
         id="b4f9d9e0-1a47-44a2-8a19-0d88a6e9c18f"
         data-name="Path 412"
         d="m 332.74579,194.78899 -108.38072,22.72005 a 3.8419266,3.8209511 0 0 1 -4.54312,-2.60675 3.7008768,3.6806714 0 0 1 2.8117,-4.55301 l 110.32491,-23.1276 c 4.30767,2.41436 2.94618,6.9051 -0.21412,7.56759 z"
         fill="#cccccc"
         style="stroke-width:1.40299" />
      <path
         id="e168965a-63e1-4676-8cbb-3e09d33a4a3f"
         data-name="Path 413"
         d="m 203.21722,233.18563 -33.07673,6.93392 a 4.1670615,4.1443109 0 0 1 -4.93195,-3.1972 l -8.22753,-38.82015 a 4.1670615,4.1443109 0 0 1 3.21476,-4.90502 l 33.07675,-6.93393 a 4.1684683,4.1457101 0 0 1 4.93195,3.19721 l 8.22752,38.82019 a 4.1670615,4.1443109 0 0 1 -3.21475,4.90502 z"
         fill="#cccccc"
         style="stroke-width:1.40299" />
      <path
         id="af0ff97e-1a3a-4f6f-a511-2c807a938985"
         data-name="Path 414"
         d="m 340.63515,233.56711 -165.40883,34.67492 a 3.8418844,3.8209092 0 0 1 -4.5431,-2.60672 3.7008768,3.6806714 0 0 1 2.8117,-4.55303 l 167.35434,-35.08277 c 4.30767,2.41435 2.94619,6.90509 -0.21411,7.5676 z"
         fill="#cccccc"
         style="stroke-width:1.40299" />
      <path
         id="e60f2d91-ad3b-421b-94cb-3aa0f5092f21"
         data-name="Path 415"
         d="M 344.64345,252.47955 179.2346,287.15449 a 3.8418985,3.8209232 0 0 1 -4.5431,-2.60672 3.7008768,3.6806714 0 0 1 2.81169,-4.55303 l 167.35435,-35.08278 c 4.30768,2.41436 2.94618,6.9051 -0.2141,7.56759 z"
         fill="#cccccc"
         style="stroke-width:1.40299" />
      <path
         id="a5554f8b-57e8-4c3b-815c-c76cc46b61b5"
         data-name="Path 416"
         d="m 348.64915,271.37963 -165.40887,34.67494 a 3.8419125,3.8209372 0 0 1 -4.54309,-2.60673 3.7008627,3.6806574 0 0 1 2.81169,-4.55302 l 167.35436,-35.08278 c 4.30768,2.41436 2.94618,6.90509 -0.21412,7.56759 z"
         fill="#cccccc"
         style="stroke-width:1.40299" />
      <path
         id="eee68bf7-fbe9-4bfc-85ae-b0141fb14f45"
         data-name="Path 417"
         d="m 352.65712,290.29068 -165.40883,34.67494 a 3.8418985,3.8209232 0 0 1 -4.5431,-2.60674 3.7008486,3.6806434 0 0 1 2.81168,-4.55301 l 167.35436,-35.08279 c 4.30768,2.41437 2.94618,6.90509 -0.21411,7.5676 z"
         fill="#cccccc"
         style="stroke-width:1.40299" />
      <path
         id="b9a7afa1-162f-46e2-88e2-f572ab59fc71"
         data-name="Path 418"
         d="m 356.6631,309.19218 -165.40883,34.67494 a 3.8418985,3.8209232 0 0 1 -4.5431,-2.60674 3.7008346,3.6806294 0 0 1 2.81168,-4.55301 l 167.35436,-35.08279 c 4.30775,2.41437 2.94618,6.90511 -0.21411,7.5676 z"
         fill="#cccccc"
         style="stroke-width:1.40299" />
      <path
         d="m 383.0478,222.63051 a 14.810471,14.729611 0 0 0 -0.96125,2.11289 l -67.71597,16.71204 -11.78011,-12.1203 -20.71572,15.29045 18.75769,23.47222 a 11.254724,11.193277 0 0 0 13.06815,3.39716 l 73.47833,-29.86118 a 14.767731,14.687105 0 1 0 -4.13106,-19.00324 z"
         fill="#ffb8b8"
         id="path843"
         style="stroke-width:1.40299" />
      <path
         d="m 151.90857,371.35045 a 15.113265,15.030753 0 0 0 8.97318,-21.24998 l 46.60049,-128.81682 -32.36248,-5.70393 -35.63053,128.41627 a 15.195143,15.112184 0 0 0 12.41934,27.35443 z"
         fill="#ffb8b8"
         id="path845"
         style="stroke-width:1.40299" />
      <path
         d="m 201.56397,244.15004 -31.95289,-12.19625 a 6.7765677,6.7395702 0 0 1 -3.47453,-9.60243 l 16.7625,-29.55823 a 18.819826,18.717077 0 0 1 35.10067,13.51524 l -7.39369,33.01675 a 6.7765677,6.7395702 0 0 1 -9.04206,4.82499 z"
         fill="#6c63ff"
         id="path847"
         style="fill:#72e8e0;fill-opacity:1;stroke-width:1.40299" />
      <polygon
         points="209.585,483.887 191.491,483.888 191.493,531.175 203.752,531.175 "
         fill="#ffb8b8"
         id="polygon849"
         transform="matrix(1.4068405,0,0,1.3991597,4.2857162,-130)" />
      <path
         d="m 269.28594,607.59891 33.96648,-0.001 h 0.001 a 21.645718,21.527541 0 0 1 21.64629,21.52776 v 0.69958 l -55.61313,10e-4 z"
         fill="#2f2e41"
         id="path851"
         style="stroke-width:1.40299" />
      <polygon
         points="140.585,483.887 122.491,483.888 122.493,531.175 134.752,531.175 "
         fill="#ffb8b8"
         id="polygon853"
         transform="matrix(1.4068405,0,0,1.3991597,4.2857162,-130)" />
      <path
         d="m 172.21395,607.59891 33.96647,-0.001 h 0.001 a 21.645718,21.527541 0 0 1 21.64628,21.52776 v 0.69958 l -55.61312,10e-4 z"
         fill="#2f2e41"
         id="path855"
         style="stroke-width:1.40299" />
      <path
         d="M 194.69493,586.5691 H 172.8683 a 6.331373,6.2968062 0 0 1 -6.32357,-6.59545 l 10.36754,-221.53175 0.65328,-0.0178 105.39936,-2.73273 20.62484,221.65886 a 6.3310917,6.2965263 0 0 1 -5.79738,6.87146 l -24.51598,1.94981 a 6.3339476,6.2993666 0 0 1 -6.70654,-5.01179 l -31.35887,-157.7922 a 2.0451943,2.0340284 0 0 0 -2.06665,-1.6779 h -0.008 a 2.0462354,2.0350637 0 0 0 -2.06286,1.6943 l -30.16636,158.10504 a 6.3441612,6.3095245 0 0 1 -6.2116,5.08015 z"
         fill="#2f2e41"
         id="path857"
         style="stroke-width:1.40299" />
      <circle
         cx="234.67694"
         cy="126.49895"
         fill="#ffb8b8"
         id="circle859"
         rx="34.553452"
         ry="34.364803"
         style="stroke-width:1.40299" />
      <path
         d="m 223.09071,384.40283 c -16.46889,0 -33.38463,-4.30542 -47.40771,-17.0345 a 6.403755,6.3687929 0 0 1 -2.06733,-5.38622 c 1.50095,-13.41226 8.78176,-82.66376 4.68145,-128.92354 a 56.301123,55.99374 0 0 1 18.22642,-46.59858 55.708266,55.40412 0 0 1 47.77933,-13.75934 h 3.5e-4 c 0.43037,0.0765 0.86039,0.15713 1.29109,0.23911 27.66352,5.32474 46.88427,30.78698 44.70939,59.22791 -3.17363,41.4993 -6.01856,97.63238 -1.55143,129.37717 a 6.3203997,6.2858927 0 0 1 -3.39724,6.48751 c -10.16416,5.10751 -35.62983,16.37048 -62.26432,16.37048 z"
         fill="#6c63ff"
         id="path861"
         style="fill:#72e8e0;fill-opacity:1;stroke-width:1.40299" />
      <path
         d="m 268.17889,246.62275 a 6.7692662,6.7323086 0 0 1 -2.96769,-4.77304 l -4.2097,-33.56559 a 18.819826,18.717077 0 0 1 36.23196,-10.14123 l 13.86623,31.00694 a 6.7765818,6.7395842 0 0 1 -4.37518,9.23123 l -32.9725,9.12531 a 6.7689567,6.7320008 0 0 1 -5.57312,-0.88362 z"
         fill="#6c63ff"
         id="path863"
         style="fill:#72e8e0;fill-opacity:1;stroke-width:1.40299" />
      <path
         d="m 222.61453,160.37853 a 24.75748,24.622314 0 0 1 -9.56259,-1.72068 c -1.33846,-0.51299 -2.72787,-0.93464 -4.06383,-1.44798 -11.79864,-4.53351 -19.57085,-17.0304 -19.84921,-29.60689 -0.27836,-12.57649 6.27029,-24.78313 15.99454,-32.827622 9.72425,-8.04448 22.31952,-12.17456 34.93165,-13.12963 13.58531,-1.02876 28.8828,2.3976 36.47413,13.64965 2.02069,2.99511 3.43387,6.628982 2.23654,10.245292 a 6.591948,6.5559585 0 0 1 -1.85743,2.83749 c -3.39019,2.9998 -6.77004,0.74423 -10.22604,0.54495 -4.75024,-0.2739 -9.01679,3.55014 -10.55025,8.02989 -1.53345,4.47974 -0.85844,9.41158 0.37972,13.98079 a 35.117636,34.925908 0 0 1 1.77016,8.50114 8.5934037,8.546487 0 0 1 -3.56063,7.52544 c -2.96831,1.78443 -6.86648,0.75168 -9.83653,-1.02988 -2.97005,-1.78156 -5.53641,-4.25867 -8.7446,-5.56966 -3.20819,-1.311 -7.51844,-1.0202 -9.38574,1.88673 a 10.381076,10.324399 0 0 0 -1.18658,3.40727 c -1.67403,7.58519 -1.28929,7.13851 -2.96331,14.72366 z"
         fill="#2f2e41"
         id="path865"
         style="stroke-width:1.40299" />
      <path
         d="M 701.22009,113.45378 H 481.75297 A 23.943257,23.812536 0 0 1 457.83668,89.668068 v -177.69328 a 23.943257,23.812536 0 0 1 23.91629,-23.785718 h 219.46712 a 23.943257,23.812536 0 0 1 23.91628,23.785718 V 89.668068 A 23.943257,23.812536 0 0 1 701.22009,113.45378 Z M 481.75297,-109.01261 a 21.126523,21.011181 0 0 0 -21.10261,20.987398 v 177.69328 a 21.126523,21.011181 0 0 0 21.10261,20.987392 h 219.46712 a 21.126523,21.011181 0 0 0 21.1026,-20.987392 v -177.69328 a 21.126523,21.011181 0 0 0 -21.1026,-20.987398 z"
         fill="#3f3d56"
         id="path867"
         style="stroke-width:1.40299" />
      <path
         id="eb40ba0f-f2ca-41e6-ba2e-bd824fb45cdc"
         data-name="Path 411"
         d="M 676.27469,-58.449775 H 565.5125 a 3.8419125,3.8209372 0 0 1 -3.90486,-3.482592 3.7008908,3.6806854 0 0 1 3.69546,-3.878373 h 112.74911 c 3.71435,3.246051 1.45085,7.360979 -1.77889,7.360979 z"
         fill="#cccccc"
         style="stroke-width:1.40299" />
      <path
         id="ea390b26-798a-41d7-8695-eb41cfeb13d4"
         data-name="Path 412"
         d="M 676.27469,-39.12738 H 565.5125 a 3.8419125,3.8209372 0 0 1 -3.90486,-3.482592 3.7008908,3.6806854 0 0 1 3.69546,-3.878373 h 112.74911 c 3.71435,3.246051 1.45085,7.360979 -1.77889,7.360979 z"
         fill="#cccccc"
         style="stroke-width:1.40299" />
      <path
         id="f9b4f79e-9356-48bc-89d8-91f80de67df3"
         data-name="Path 413"
         d="m 541.5683,-28.125787 h -33.80357 a 4.1670615,4.1443109 0 0 1 -4.16284,-4.140114 v -39.673172 a 4.1670615,4.1443109 0 0 1 4.16284,-4.140114 h 33.80357 a 4.1684683,4.1457101 0 0 1 4.16284,4.140114 v 39.673172 a 4.1670615,4.1443109 0 0 1 -4.16284,4.140114 z"
         fill="#3f3d56"
         style="stroke-width:1.40299" />
      <path
         id="f3294a48-db04-45e1-afc8-dab6eb28e529"
         data-name="Path 414"
         d="M 675.95251,0.4352593 H 506.90912 a 3.8418985,3.8209232 0 0 1 -3.90482,-3.482508 3.7008486,3.6806434 0 0 1 3.69544,-3.878387 h 171.03167 c 3.71437,3.24605 1.45084,7.360979 -1.7789,7.360979 z"
         fill="#cccccc"
         style="stroke-width:1.40299" />
      <path
         id="bb6dba8b-bb0a-4f92-a6ea-c6252f741607"
         data-name="Path 415"
         d="M 675.95251,19.763251 H 506.90912 a 3.8418985,3.8209232 0 0 1 -3.90482,-3.482579 3.7008486,3.6806434 0 0 1 3.69544,-3.878386 h 171.03167 c 3.71437,3.24605 1.45084,7.360979 -1.7789,7.360979 z"
         fill="#cccccc"
         style="stroke-width:1.40299" />
      <path
         id="b1d451cb-91ad-40cf-876e-6a74c98e5c4f"
         data-name="Path 416"
         d="M 675.95251,39.07865 H 506.90912 a 3.8418844,3.8209092 0 0 1 -3.90482,-3.482578 3.7008486,3.6806434 0 0 1 3.69544,-3.878387 h 171.03167 c 3.71437,3.24605 1.45084,7.360979 -1.7789,7.360979 z"
         fill="#cccccc"
         style="stroke-width:1.40299" />
      <path
         id="bcef27e7-bcca-4cc4-a6d4-200e9e04132c"
         data-name="Path 417"
         d="M 675.95251,58.405242 H 506.90912 a 3.8418844,3.8209092 0 0 1 -3.90482,-3.482508 3.7008486,3.6806434 0 0 1 3.69544,-3.878387 h 171.03167 c 3.71437,3.246051 1.45084,7.360979 -1.7789,7.360979 z"
         fill="#cccccc"
         style="stroke-width:1.40299" />
      <path
         id="ed29f808-f3a3-4ac8-bd45-563f73aa9d8b"
         data-name="Path 418"
         d="M 675.95251,77.722041 H 506.90912 a 3.8418985,3.8209232 0 0 1 -3.90482,-3.482579 3.7008627,3.6806574 0 0 1 3.69544,-3.8784 h 171.03167 c 3.71437,3.24605 1.45084,7.360979 -1.7789,7.360979 z"
         fill="#cccccc"
         style="stroke-width:1.40299" />
      <path
         d="m 653.38751,-130 a 7.0422636,7.0038155 0 0 1 7.0342,6.9958 v 22.38655 a 7.0422636,7.0038155 0 0 1 -7.0342,6.995799 H 529.58555 a 7.0422636,7.0038155 0 0 1 -7.03421,-6.995799 V -123.0042 A 7.0422636,7.0038155 0 0 1 529.58555,-130"
         fill="#6c63ff"
         id="path877"
         style="fill:#72e8e0;fill-opacity:1;stroke-width:1.40299" />
      <path
         d="M 1017.7592,333.12185 H 798.29208 A 23.943257,23.812536 0 0 1 774.37579,309.33614 V 131.64286 a 23.943257,23.812536 0 0 1 23.91629,-23.78572 h 219.46712 a 23.943257,23.812536 0 0 1 23.9163,23.78572 v 177.69328 a 23.943257,23.812536 0 0 1 -23.9163,23.78571 z M 798.29208,110.65546 a 21.126523,21.011181 0 0 0 -21.10261,20.9874 v 177.69328 a 21.126523,21.011181 0 0 0 21.10261,20.98739 h 219.46712 a 21.126523,21.011181 0 0 0 21.1026,-20.98739 V 131.64286 a 21.126523,21.011181 0 0 0 -21.1026,-20.9874 z"
         fill="#3f3d56"
         id="path879"
         style="stroke-width:1.40299" />
      <path
         id="ab56b95a-ad0a-4db6-b885-1de339e59248"
         data-name="Path 411"
         d="M 992.8138,161.2183 H 882.0516 a 3.8419125,3.8209372 0 0 1 -3.90485,-3.4826 3.7008908,3.6806854 0 0 1 3.69546,-3.87837 h 112.74911 c 3.71435,3.24605 1.45084,7.36098 -1.7789,7.36098 z"
         fill="#3f3d56"
         style="stroke-width:1.40299" />
      <path
         id="a65ba0e0-92d5-467b-b937-6962ba88422c"
         data-name="Path 412"
         d="M 992.8138,180.54069 H 882.0516 a 3.8419125,3.8209372 0 0 1 -3.90485,-3.48259 3.7008908,3.6806854 0 0 1 3.69546,-3.87837 h 112.74911 c 3.71435,3.24605 1.45084,7.36097 -1.7789,7.36097 z"
         fill="#3f3d56"
         style="stroke-width:1.40299" />
      <path
         id="fb801fe4-3edc-4e65-9957-dec023933e0a"
         data-name="Path 413"
         d="M 858.1074,191.54228 H 824.30384 A 4.1670615,4.1443109 0 0 1 820.141,187.40217 V 147.729 a 4.1670615,4.1443109 0 0 1 4.16284,-4.14012 h 33.80356 a 4.1684683,4.1457101 0 0 1 4.16285,4.14012 v 39.67317 a 4.1670615,4.1443109 0 0 1 -4.16285,4.14011 z"
         fill="#cccccc"
         style="stroke-width:1.40299" />
      <path
         id="faab0864-6611-44c5-86ab-6dd51d336b1d"
         data-name="Path 413"
         d="m 991.75725,299.27758 h -33.80356 a 4.1670615,4.1443109 0 0 1 -4.16284,-4.14012 v -22.88325 a 4.1670615,4.1443109 0 0 1 4.16284,-4.14012 h 33.80356 a 4.1684683,4.1457101 0 0 1 4.16284,4.14012 v 22.88325 a 4.1670615,4.1443109 0 0 1 -4.16284,4.14012 z"
         fill="#3f3d56"
         style="stroke-width:1.40299" />
      <path
         id="ada3facf-2b93-40cb-83c6-b6d8dc380c35"
         data-name="Path 414"
         d="M 992.49162,220.10333 H 823.44823 a 3.8418985,3.8209232 0 0 1 -3.90483,-3.48251 3.7008486,3.6806434 0 0 1 3.69545,-3.87839 h 171.03166 c 3.71437,3.24605 1.45085,7.36098 -1.77889,7.36098 z"
         fill="#cccccc"
         style="stroke-width:1.40299" />
      <path
         id="a50891a7-c495-4965-ab40-a1f907e5cce2"
         data-name="Path 415"
         d="M 992.49162,239.43132 H 823.44823 a 3.8418985,3.8209232 0 0 1 -3.90483,-3.48258 3.7008486,3.6806434 0 0 1 3.69545,-3.87838 h 171.03166 c 3.71437,3.24605 1.45085,7.36097 -1.77889,7.36097 z"
         fill="#cccccc"
         style="stroke-width:1.40299" />
      <path
         id="f645be9d-0c31-4d92-bfb2-feede413f090"
         data-name="Path 416"
         d="M 992.49162,258.74672 H 823.44823 a 3.8418844,3.8209092 0 0 1 -3.90483,-3.48258 3.7008486,3.6806434 0 0 1 3.69545,-3.87839 h 171.03166 c 3.71437,3.24606 1.45085,7.36098 -1.77889,7.36098 z"
         fill="#cccccc"
         style="stroke-width:1.40299" />
      <path
         id="f96ba49d-c571-4857-91da-e214cd5ba82f"
         data-name="Path 417"
         d="m 903.86067,278.07331 h -80.41244 a 3.8418844,3.8209092 0 0 1 -3.90483,-3.48251 3.7008486,3.6806434 0 0 1 3.69545,-3.87838 h 82.40071 c 3.71437,3.24605 1.45085,7.36098 -1.77889,7.36098 z"
         fill="#cccccc"
         style="stroke-width:1.40299" />
      <path
         id="a7214c6f-9d52-425a-b9ef-635698aec079"
         data-name="Path 418"
         d="m 903.86067,297.39011 h -80.41244 a 3.8418985,3.8209232 0 0 1 -3.90483,-3.48258 3.7008627,3.6806574 0 0 1 3.69545,-3.8784 h 82.40071 c 3.71437,3.24605 1.45085,7.36098 -1.77889,7.36098 z"
         fill="#cccccc"
         style="stroke-width:1.40299" />
      <path
         d="M 969.92662,126.04622 H 846.12466 a 7.0422636,7.0038155 0 0 1 -7.03421,-6.9958 V 96.663868 a 7.0422636,7.0038155 0 0 1 7.03421,-6.9958 h 123.80196 a 7.0422636,7.0038155 0 0 1 7.0342,6.9958 v 22.386552 a 7.0422636,7.0038155 0 0 1 -7.0342,6.9958 z"
         fill="#6c63ff"
         id="path890"
         style="fill:#72e8e0;fill-opacity:1;stroke-width:1.40299" />
      <path
         d="M 541.69878,631.14286 H 5.6925562 a 1.4068408,1.39916 0 0 1 0,-2.79832 H 541.69878 a 1.4068408,1.39916 0 0 1 0,2.79832 z"
         fill="#3f3d56"
         id="path892"
         style="stroke-width:1.40299" />
      <circle
         cx="140.41692"
         cy="-97.365585"
         fill="#f2f2f2"
         id="circle894"
         rx="9.0978823"
         ry="9.0482111"
         style="stroke-width:1.40299" />
      <circle
         cx="140.41692"
         cy="-61.304619"
         fill="#f2f2f2"
         id="circle896"
         rx="9.0978823"
         ry="9.0482111"
         style="stroke-width:1.40299" />
      <circle
         cx="140.41692"
         cy="-25.243654"
         fill="#f2f2f2"
         id="circle898"
         rx="9.0978823"
         ry="9.0482111"
         style="stroke-width:1.40299" />
      <circle
         cx="140.41692"
         cy="10.817308"
         fill="#f2f2f2"
         id="circle900"
         rx="9.0978823"
         ry="9.0482111"
         style="stroke-width:1.40299" />
      <circle
         cx="178.40161"
         cy="-97.365585"
         fill="#f2f2f2"
         id="circle902"
         rx="9.0978823"
         ry="9.0482111"
         style="stroke-width:1.40299" />
      <circle
         cx="178.40161"
         cy="-61.304619"
         fill="#f2f2f2"
         id="circle904"
         rx="9.0978823"
         ry="9.0482111"
         style="stroke-width:1.40299" />
      <circle
         cx="178.40161"
         cy="-25.243654"
         fill="#f2f2f2"
         id="circle906"
         rx="9.0978823"
         ry="9.0482111"
         style="stroke-width:1.40299" />
      <circle
         cx="178.40161"
         cy="10.817308"
         fill="#f2f2f2"
         id="circle908"
         rx="9.0978823"
         ry="9.0482111"
         style="stroke-width:1.40299" />
      <circle
         cx="216.38631"
         cy="-97.365585"
         fill="#f2f2f2"
         id="circle910"
         rx="9.0978823"
         ry="9.0482111"
         style="stroke-width:1.40299" />
      <circle
         cx="216.38631"
         cy="-61.304619"
         fill="#f2f2f2"
         id="circle912"
         rx="9.0978823"
         ry="9.0482111"
         style="stroke-width:1.40299" />
      <circle
         cx="216.38631"
         cy="-25.243654"
         fill="#f2f2f2"
         id="circle914"
         rx="9.0978823"
         ry="9.0482111"
         style="stroke-width:1.40299" />
      <circle
         cx="216.38631"
         cy="10.817308"
         fill="#f2f2f2"
         id="circle916"
         rx="9.0978823"
         ry="9.0482111"
         style="stroke-width:1.40299" />
      <circle
         cx="254.371"
         cy="-97.365585"
         fill="#f2f2f2"
         id="circle918"
         rx="9.0978823"
         ry="9.0482111"
         style="stroke-width:1.40299" />
      <circle
         cx="254.371"
         cy="-61.304619"
         fill="#f2f2f2"
         id="circle920"
         rx="9.0978823"
         ry="9.0482111"
         style="stroke-width:1.40299" />
      <circle
         cx="254.371"
         cy="-25.243654"
         fill="#f2f2f2"
         id="circle922"
         rx="9.0978823"
         ry="9.0482111"
         style="stroke-width:1.40299" />
      <circle
         cx="254.371"
         cy="10.817308"
         fill="#f2f2f2"
         id="circle924"
         rx="9.0978823"
         ry="9.0482111"
         style="stroke-width:1.40299" />
      <circle
         cx="292.35568"
         cy="-97.365585"
         fill="#f2f2f2"
         id="circle926"
         rx="9.0978823"
         ry="9.0482111"
         style="stroke-width:1.40299" />
      <circle
         cx="292.35568"
         cy="-61.304619"
         fill="#f2f2f2"
         id="circle928"
         rx="9.0978823"
         ry="9.0482111"
         style="stroke-width:1.40299" />
      <circle
         cx="292.35568"
         cy="-25.243654"
         fill="#f2f2f2"
         id="circle930"
         rx="9.0978823"
         ry="9.0482111"
         style="stroke-width:1.40299" />
      <circle
         cx="292.35568"
         cy="10.817308"
         fill="#f2f2f2"
         id="circle932"
         rx="9.0978823"
         ry="9.0482111"
         style="stroke-width:1.40299" />
      <circle
         cx="330.34036"
         cy="-97.365585"
         fill="#f2f2f2"
         id="circle934"
         rx="9.0978823"
         ry="9.0482111"
         style="stroke-width:1.40299" />
      <circle
         cx="330.34036"
         cy="-61.304619"
         fill="#f2f2f2"
         id="circle936"
         rx="9.0978823"
         ry="9.0482111"
         style="stroke-width:1.40299" />
      <circle
         cx="330.34036"
         cy="-25.243654"
         fill="#f2f2f2"
         id="circle938"
         rx="9.0978823"
         ry="9.0482111"
         style="stroke-width:1.40299" />
      <circle
         cx="330.34036"
         cy="10.817308"
         fill="#f2f2f2"
         id="circle940"
         rx="9.0978823"
         ry="9.0482111"
         style="stroke-width:1.40299" />
      <circle
         cx="850.87134"
         cy="403.5336"
         fill="#f2f2f2"
         id="circle942"
         rx="9.0978823"
         ry="9.0482111"
         style="stroke-width:1.40299" />
      <circle
         cx="850.87134"
         cy="439.59454"
         fill="#f2f2f2"
         id="circle944"
         rx="9.0978823"
         ry="9.0482111"
         style="stroke-width:1.40299" />
      <circle
         cx="850.87134"
         cy="475.65552"
         fill="#f2f2f2"
         id="circle946"
         rx="9.0978823"
         ry="9.0482111"
         style="stroke-width:1.40299" />
      <circle
         cx="888.85608"
         cy="403.5336"
         fill="#f2f2f2"
         id="circle948"
         rx="9.0978823"
         ry="9.0482111"
         style="stroke-width:1.40299" />
      <circle
         cx="888.85608"
         cy="439.59454"
         fill="#f2f2f2"
         id="circle950"
         rx="9.0978823"
         ry="9.0482111"
         style="stroke-width:1.40299" />
      <circle
         cx="888.85608"
         cy="475.65552"
         fill="#f2f2f2"
         id="circle952"
         rx="9.0978823"
         ry="9.0482111"
         style="stroke-width:1.40299" />
      <circle
         cx="926.84076"
         cy="403.5336"
         fill="#f2f2f2"
         id="circle954"
         rx="9.0978823"
         ry="9.0482111"
         style="stroke-width:1.40299" />
      <circle
         cx="926.84076"
         cy="439.59454"
         fill="#f2f2f2"
         id="circle956"
         rx="9.0978823"
         ry="9.0482111"
         style="stroke-width:1.40299" />
      <circle
         cx="926.84076"
         cy="475.65552"
         fill="#f2f2f2"
         id="circle958"
         rx="9.0978823"
         ry="9.0482111"
         style="stroke-width:1.40299" />
      <circle
         cx="964.82544"
         cy="403.5336"
         fill="#f2f2f2"
         id="circle960"
         rx="9.0978823"
         ry="9.0482111"
         style="stroke-width:1.40299" />
      <circle
         cx="964.82544"
         cy="439.59454"
         fill="#f2f2f2"
         id="circle962"
         rx="9.0978823"
         ry="9.0482111"
         style="stroke-width:1.40299" />
      <circle
         cx="964.82544"
         cy="475.65552"
         fill="#f2f2f2"
         id="circle964"
         rx="9.0978823"
         ry="9.0482111"
         style="stroke-width:1.40299" />
    </g>
  </g>
</svg>
